<svg width="203" height="29" viewBox="0 0 203 29" fill="none" xmlns="http://www.w3.org/2000/svg">
<path d="M21.304 20.6359C21.304 20.9906 21.2013 21.1679 20.996 21.1679C20.3613 21.1679 19.6333 21.1399 18.812 21.0839C18.084 21.0279 17.468 20.9999 16.964 20.9999C16.3947 20.9999 15.662 21.0279 14.766 21.0839C13.8233 21.1399 13.0393 21.1679 12.414 21.1679C12.3207 21.1679 12.274 21.0839 12.274 20.9159C12.274 20.5892 12.386 20.4166 12.61 20.3979C13.702 20.3326 14.458 20.1459 14.878 19.8379C15.298 19.5206 15.5453 18.8999 15.62 17.9759L16.068 13.3559H10.678L7.23399 17.6959C6.67399 18.4332 6.39399 19.0119 6.39399 19.4319C6.39399 20.0106 6.94466 20.3279 8.04599 20.3839C8.13933 20.3839 8.18599 20.4679 8.18599 20.6359C8.18599 20.7759 8.15333 20.8972 8.08799 20.9999C8.02266 21.1119 7.94333 21.1679 7.84999 21.1679C7.29933 21.1679 6.69733 21.1399 6.04399 21.0839C5.41866 21.0279 4.85399 20.9999 4.34999 20.9999C3.94866 20.9999 3.35599 21.0279 2.57199 21.0839C1.75999 21.1399 1.12999 21.1679 0.681992 21.1679C0.588659 21.1679 0.541992 21.0839 0.541992 20.9159C0.541992 20.5892 0.644659 20.4166 0.849992 20.3979C1.83933 20.3046 2.70733 20.0526 3.45399 19.6419C4.20066 19.2219 4.97533 18.5359 5.77799 17.5839L19.148 1.49792C19.2693 1.34858 19.4187 1.27392 19.596 1.27392C19.82 1.27392 19.932 1.36725 19.932 1.55392L18.532 17.7799C18.5227 17.9759 18.518 18.1579 18.518 18.3259C18.518 18.9979 18.686 19.4786 19.022 19.7679C19.3673 20.0572 20.0813 20.2673 21.164 20.3979C21.2573 20.4073 21.304 20.4866 21.304 20.6359ZM16.768 5.69792L11.378 12.4599H16.152L16.768 5.69792Z" fill="white"/>
<path d="M40.0959 12.6559C40.0959 13.9906 39.7319 15.3672 39.0039 16.7859C38.2759 18.1952 37.3473 19.3526 36.2179 20.2579C35.0886 21.1632 33.9919 21.6159 32.9279 21.6159C32.0413 21.6159 31.3693 21.2146 30.9119 20.4119L29.1479 25.6199C29.0359 25.9559 28.9799 26.2826 28.9799 26.5999C28.9799 26.8706 29.0873 27.0852 29.3019 27.2439C29.5259 27.4026 29.9879 27.5426 30.6879 27.6639C30.7813 27.6639 30.8279 27.7386 30.8279 27.8879C30.8279 28.2612 30.7159 28.4479 30.4919 28.4479C28.3919 28.2799 26.1986 28.1959 23.9119 28.1959C23.8186 28.1959 23.7719 28.1026 23.7719 27.9159C23.7719 27.7946 23.8093 27.6779 23.8839 27.5659C23.9586 27.4632 24.0333 27.4119 24.1079 27.4119C25.4333 27.3186 26.2919 26.7213 26.6839 25.6199L31.5559 11.2559C31.0146 11.5079 30.4173 11.8206 29.7639 12.1939L29.6939 12.2079C29.6006 12.2079 29.5119 12.1612 29.4279 12.0679C29.3533 11.9652 29.3159 11.8579 29.3159 11.7459C29.3159 11.6712 29.4139 11.5686 29.6099 11.4379C29.8153 11.3072 30.0159 11.1812 30.2119 11.0599C30.8093 10.6959 31.3879 10.3879 31.9479 10.1359L33.2359 6.31392C33.2826 6.18325 33.4553 6.07125 33.7539 5.97791C34.0526 5.88458 34.3466 5.83792 34.6359 5.83792C34.9066 5.83792 35.1539 5.87992 35.3779 5.96392C35.6113 6.03858 35.7279 6.15525 35.7279 6.31392L34.8039 8.98792C35.4199 8.78258 36.0266 8.67992 36.6239 8.67992C37.6973 8.67992 38.5419 9.03458 39.1579 9.74392C39.7833 10.4439 40.0959 11.4146 40.0959 12.6559ZM37.3799 12.2639C37.3799 10.8266 36.8106 10.1079 35.6719 10.1079C35.1586 10.1079 34.7293 10.1546 34.3839 10.2479L32.0319 17.1639C31.7519 17.9759 31.6119 18.6759 31.6119 19.2639C31.6119 20.2346 32.0599 20.7199 32.9559 20.7199C33.6653 20.7199 34.3699 20.3139 35.0699 19.5019C35.7699 18.6899 36.3299 17.6352 36.7499 16.3379C37.1699 15.0312 37.3799 13.6732 37.3799 12.2639Z" fill="white"/>
<path d="M50.3015 10.7799C50.3015 12.0586 49.6668 13.2112 48.3975 14.2379C47.1282 15.2552 45.6535 15.7639 43.9735 15.7639C43.9175 16.3239 43.8895 16.8279 43.8895 17.2759C43.8895 18.0972 44.0015 18.6853 44.2255 19.0399C44.4588 19.3946 44.8415 19.5719 45.3735 19.5719C46.5682 19.5719 47.6275 18.8859 48.5515 17.5139L48.6355 17.4719C48.7102 17.4719 48.7895 17.5232 48.8735 17.6259C48.9575 17.7192 48.9995 17.8079 48.9995 17.8919C48.9995 18.0879 48.7148 18.5546 48.1455 19.2919C47.5762 20.0292 46.9742 20.5986 46.3395 20.9999C45.7142 21.4106 45.1028 21.6159 44.5055 21.6159C43.5908 21.6159 42.8395 21.2659 42.2515 20.5659C41.6635 19.8566 41.3695 19.0212 41.3695 18.0599C41.3695 16.7159 41.7195 15.3112 42.4195 13.8459C43.1288 12.3806 44.0295 11.1532 45.1215 10.1639C46.2228 9.17458 47.2402 8.67992 48.1735 8.67992C48.8455 8.67992 49.3682 8.87125 49.7415 9.25392C50.1148 9.62725 50.3015 10.1359 50.3015 10.7799ZM48.3135 11.2559C48.3135 10.4719 47.9682 10.0799 47.2775 10.0799C46.6055 10.0799 45.9755 10.5372 45.3875 11.4519C44.7995 12.3666 44.3842 13.5052 44.1415 14.8679C44.9255 14.8679 45.6208 14.7046 46.2275 14.3779C46.8435 14.0419 47.3428 13.5659 47.7255 12.9499C48.1175 12.3246 48.3135 11.7599 48.3135 11.2559Z" fill="white"/>
<path d="M62.4399 10.2479C62.4399 10.7146 62.3093 11.0879 62.0479 11.3679C61.7866 11.6479 61.4693 11.7879 61.0959 11.7879C60.7599 11.7879 60.4379 11.6152 60.1299 11.2699C59.8686 10.9806 59.6213 10.8359 59.3879 10.8359C58.8093 10.8359 57.9413 11.7832 56.7839 13.6779C55.6359 15.5726 54.4506 17.9479 53.2279 20.8039C53.0973 21.1213 52.6773 21.2799 51.9679 21.2799C51.7253 21.2799 51.5013 21.2379 51.2959 21.1539C51.0999 21.0792 51.0019 20.9859 51.0019 20.8739L51.0159 20.8039L53.9559 12.1799C54.1986 11.4519 54.3199 10.9946 54.3199 10.8079C54.3199 10.5839 54.2266 10.4719 54.0399 10.4719C53.7413 10.4719 53.2093 10.9759 52.4439 11.9839C52.0706 12.4692 51.8466 12.7119 51.7719 12.7119C51.6413 12.7119 51.5293 12.6606 51.4359 12.5579C51.3426 12.4459 51.2959 12.3386 51.2959 12.2359C51.2959 12.1052 51.6039 11.6852 52.2199 10.9759C52.8359 10.2572 53.4286 9.69725 53.9979 9.29592C54.5766 8.88525 55.0759 8.67992 55.4959 8.67992C56.4666 8.67992 56.9519 9.09992 56.9519 9.93992C56.9519 10.4066 56.8026 11.0692 56.5039 11.9279L55.9719 13.4399C57.7453 10.2666 59.3039 8.67992 60.6479 8.67992C61.1706 8.67992 61.5999 8.82458 61.9359 9.11392C62.2719 9.39392 62.4399 9.77192 62.4399 10.2479Z" fill="white"/>
<path d="M76.667 1.86191C76.667 2.25391 76.5223 2.59458 76.233 2.88392C75.953 3.17325 75.6077 3.31792 75.197 3.31792C74.8797 3.31792 74.4877 3.15458 74.021 2.82791C73.545 2.50125 73.1437 2.33791 72.817 2.33791C72.201 2.33791 71.697 2.47325 71.305 2.74392C70.913 3.01458 70.5817 3.46258 70.311 4.08791C70.0403 4.71325 69.6857 6.02925 69.247 8.03592C69.0977 8.73592 68.981 9.27725 68.897 9.65991H72.005C72.1077 9.65991 72.173 9.68792 72.201 9.74392C72.2383 9.79992 72.257 9.92125 72.257 10.1079C72.257 10.2946 72.2057 10.4672 72.103 10.6259C72.0097 10.7846 71.9117 10.8639 71.809 10.8639L68.645 10.8079L66.321 20.4399C65.9197 22.1293 65.3783 23.5946 64.697 24.8359C64.025 26.0866 63.2503 27.0666 62.373 27.7759C61.4863 28.4853 60.637 28.8399 59.825 28.8399C59.1623 28.8399 58.5977 28.6719 58.131 28.3359C57.655 28.0092 57.417 27.6266 57.417 27.1879C57.417 26.3852 57.8183 25.9839 58.621 25.9839C58.957 25.9839 59.363 26.1939 59.839 26.6139C60.315 27.0339 60.721 27.2439 61.057 27.2439C61.645 27.2439 62.1023 27.0152 62.429 26.5579C62.7463 26.1006 63.0637 25.1159 63.381 23.6039L66.041 11.1439V11.0459C66.041 10.8872 65.9477 10.8079 65.761 10.8079H63.521C63.353 10.8079 63.269 10.6866 63.269 10.4439C63.269 10.2946 63.3717 10.1826 63.577 10.1079C65.4997 9.88392 66.4797 9.59458 66.517 9.23992C66.8063 7.82125 67.3803 6.40258 68.239 4.98392C69.107 3.55592 70.087 2.44525 71.179 1.65191C72.271 0.858581 73.3863 0.461914 74.525 0.461914C75.953 0.461914 76.667 0.928581 76.667 1.86191Z" fill="white"/>
<path d="M82.027 12.9919C82.027 14.3266 81.677 15.6706 80.977 17.0239C80.277 18.3772 79.3717 19.4832 78.261 20.3419C77.1504 21.1912 76.0537 21.6159 74.971 21.6159C74.0564 21.6159 73.2724 21.2099 72.619 20.3979C71.9657 19.5766 71.639 18.5546 71.639 17.3319C71.639 15.9972 71.9844 14.6532 72.675 13.2999C73.375 11.9466 74.2757 10.8406 75.377 9.98192C76.4877 9.11392 77.5844 8.67992 78.667 8.67992C79.5817 8.67992 80.3704 9.09058 81.033 9.91191C81.6957 10.7332 82.027 11.7599 82.027 12.9919ZM79.731 11.1719C79.731 10.5652 79.6517 10.1546 79.493 9.93992C79.3437 9.71592 79.0684 9.60392 78.667 9.60392C78.0417 9.60392 77.337 10.1172 76.553 11.1439C75.7784 12.1706 75.1437 13.4212 74.649 14.8959C74.1544 16.3612 73.907 17.7706 73.907 19.1239C73.907 19.7399 73.9864 20.1599 74.145 20.3839C74.3037 20.6079 74.5884 20.7199 74.999 20.7199C75.615 20.7199 76.3104 20.2112 77.085 19.1939C77.8597 18.1672 78.4944 16.9166 78.989 15.4419C79.4837 13.9672 79.731 12.5439 79.731 11.1719Z" fill="white"/>
<path d="M94.4868 10.2479C94.4868 10.7146 94.3561 11.0879 94.0948 11.3679C93.8335 11.6479 93.5161 11.7879 93.1428 11.7879C92.8068 11.7879 92.4848 11.6152 92.1768 11.2699C91.9155 10.9806 91.6681 10.8359 91.4348 10.8359C90.8561 10.8359 89.9881 11.7832 88.8308 13.6779C87.6828 15.5726 86.4975 17.9479 85.2748 20.8039C85.1441 21.1213 84.7241 21.2799 84.0148 21.2799C83.7721 21.2799 83.5481 21.2379 83.3428 21.1539C83.1468 21.0792 83.0488 20.9859 83.0488 20.8739L83.0628 20.8039L86.0028 12.1799C86.2455 11.4519 86.3668 10.9946 86.3668 10.8079C86.3668 10.5839 86.2735 10.4719 86.0868 10.4719C85.7881 10.4719 85.2561 10.9759 84.4908 11.9839C84.1175 12.4692 83.8935 12.7119 83.8188 12.7119C83.6881 12.7119 83.5761 12.6606 83.4828 12.5579C83.3895 12.4459 83.3428 12.3386 83.3428 12.2359C83.3428 12.1052 83.6508 11.6852 84.2668 10.9759C84.8828 10.2572 85.4755 9.69725 86.0448 9.29592C86.6235 8.88525 87.1228 8.67992 87.5428 8.67992C88.5135 8.67992 88.9988 9.09992 88.9988 9.93992C88.9988 10.4066 88.8495 11.0692 88.5508 11.9279L88.0188 13.4399C89.7921 10.2666 91.3508 8.67992 92.6948 8.67992C93.2175 8.67992 93.6468 8.82458 93.9828 9.11392C94.3188 9.39392 94.4868 9.77192 94.4868 10.2479Z" fill="white"/>
<path d="M113.13 10.4719C113.13 10.9572 113.009 11.4426 112.766 11.9279L109.714 18.1159C109.378 18.7879 109.21 19.2639 109.21 19.5439C109.21 19.7306 109.304 19.8239 109.49 19.8239C109.789 19.8239 110.4 19.2873 111.324 18.2139C111.819 17.6446 112.104 17.3599 112.178 17.3599C112.3 17.3599 112.398 17.4112 112.472 17.5139C112.556 17.6166 112.598 17.7239 112.598 17.8359C112.598 17.9666 112.239 18.4146 111.52 19.1799C110.802 19.9359 110.125 20.5332 109.49 20.9719C108.856 21.4012 108.324 21.6159 107.894 21.6159C106.989 21.6159 106.536 21.2239 106.536 20.4399C106.536 19.9266 106.746 19.2266 107.166 18.3399L110.19 12.1799C110.396 11.7972 110.498 11.4519 110.498 11.1439C110.498 10.6959 110.246 10.4719 109.742 10.4719C109.294 10.4719 108.669 10.9526 107.866 11.9139C107.064 12.8659 105.603 14.9986 103.484 18.3119L102.364 20.6919C102.15 21.0839 101.711 21.2799 101.048 21.2799C100.255 21.2799 99.8582 21.1306 99.8582 20.8319C99.8582 20.7853 99.8722 20.7386 99.9002 20.6919L103.96 12.1799C104.147 11.8066 104.24 11.4799 104.24 11.1999C104.24 10.7146 103.979 10.4719 103.456 10.4719C102.924 10.4719 102.248 10.9526 101.426 11.9139C100.605 12.8752 99.1629 15.0079 97.1002 18.3119L96.0082 20.6919C95.8402 21.0839 95.4015 21.2799 94.6922 21.2799C93.8989 21.2799 93.5022 21.1306 93.5022 20.8319C93.5022 20.7853 93.5162 20.7386 93.5442 20.6919L97.4922 12.1799C97.7909 11.4706 97.9402 11.0132 97.9402 10.8079C97.9402 10.5839 97.8469 10.4719 97.6602 10.4719C97.3335 10.4719 96.6849 11.0599 95.7142 12.2359C95.3315 12.7026 95.1122 12.9359 95.0562 12.9359C94.9349 12.9359 94.8275 12.8846 94.7342 12.7819C94.6502 12.6792 94.6082 12.5719 94.6082 12.4599C94.6082 12.3199 94.9535 11.8719 95.6442 11.1159C96.3349 10.3599 96.9929 9.76725 97.6182 9.33792C98.2435 8.89925 98.7709 8.67992 99.2002 8.67992C100.134 8.67992 100.6 9.09992 100.6 9.93992C100.6 10.4439 100.414 11.1066 100.04 11.9279L99.4242 13.2719C100.208 11.9186 101.114 10.8172 102.14 9.96792C103.176 9.10925 104.147 8.67992 105.052 8.67992C105.631 8.67992 106.074 8.84792 106.382 9.18392C106.7 9.51058 106.858 9.95858 106.858 10.5279C106.858 10.9852 106.751 11.4519 106.536 11.9279L105.976 13.0759C106.826 11.6946 107.717 10.6166 108.65 9.84192C109.593 9.06725 110.489 8.67992 111.338 8.67992C111.908 8.67992 112.346 8.84325 112.654 9.16992C112.972 9.49658 113.13 9.93058 113.13 10.4719Z" fill="white"/>
<path d="M122.725 3.42991C122.725 3.85925 122.571 4.22791 122.263 4.53592C121.955 4.84392 121.587 4.99792 121.157 4.99792C120.709 4.99792 120.331 4.84392 120.023 4.53592C119.715 4.22791 119.561 3.85925 119.561 3.42991C119.561 2.99125 119.715 2.61792 120.023 2.30992C120.331 1.99258 120.709 1.83391 121.157 1.83391C121.587 1.83391 121.955 1.99258 122.263 2.30992C122.571 2.61792 122.725 2.99125 122.725 3.42991ZM121.073 9.85592C121.073 10.4346 120.877 11.1252 120.485 11.9279L117.433 18.1159C117.116 18.7506 116.957 19.2079 116.957 19.4879C116.957 19.7119 117.032 19.8239 117.181 19.8239C117.489 19.8239 118.124 19.2686 119.085 18.1579C119.533 17.6259 119.795 17.3599 119.869 17.3599C119.991 17.3599 120.093 17.4159 120.177 17.5279C120.271 17.6306 120.317 17.7332 120.317 17.8359C120.317 17.9666 119.953 18.4146 119.225 19.1799C118.507 19.9359 117.825 20.5332 117.181 20.9719C116.547 21.4012 116.015 21.6159 115.585 21.6159C114.689 21.6159 114.241 21.2053 114.241 20.3839C114.241 19.9079 114.447 19.2266 114.857 18.3399L117.909 12.1799C118.227 11.5452 118.385 11.0692 118.385 10.7519C118.385 10.5652 118.301 10.4719 118.133 10.4719C117.816 10.4719 117.153 11.0552 116.145 12.2219C115.735 12.6979 115.501 12.9359 115.445 12.9359C115.324 12.9359 115.221 12.8892 115.137 12.7959C115.063 12.6932 115.025 12.5812 115.025 12.4599C115.025 12.3199 115.38 11.8719 116.089 11.1159C116.808 10.3599 117.489 9.76725 118.133 9.33792C118.777 8.89925 119.319 8.67992 119.757 8.67992C120.635 8.67992 121.073 9.07192 121.073 9.85592Z" fill="white"/>
<path d="M134.433 10.5279C134.433 11.1532 134.237 11.9279 133.845 12.8519L131.633 18.1159C131.316 18.8812 131.157 19.3386 131.157 19.4879C131.157 19.7119 131.241 19.8239 131.409 19.8239C131.745 19.8239 132.338 19.3152 133.187 18.2979C133.57 17.8406 133.798 17.6119 133.873 17.6119C133.985 17.6119 134.083 17.6633 134.167 17.7659C134.251 17.8686 134.293 17.9759 134.293 18.0879C134.293 18.2466 133.966 18.6759 133.313 19.3759C132.66 20.0666 132.02 20.6126 131.395 21.0139C130.77 21.4152 130.233 21.6159 129.785 21.6159C129.384 21.6159 129.062 21.5226 128.819 21.3359C128.586 21.1586 128.469 20.9066 128.469 20.5799C128.469 20.0479 128.674 19.3012 129.085 18.3399L131.353 12.9359C131.614 12.3292 131.745 11.8252 131.745 11.4239C131.745 10.9012 131.53 10.6399 131.101 10.6399C130.578 10.6399 129.804 11.3166 128.777 12.6699C127.76 14.0232 126.621 15.8479 125.361 18.1439L124.437 20.8039C124.39 20.9346 124.218 21.0466 123.919 21.1399C123.62 21.2332 123.326 21.2799 123.037 21.2799C122.766 21.2799 122.519 21.2379 122.295 21.1539C122.071 21.0792 121.959 20.9859 121.959 20.8739L121.973 20.8039L124.885 12.1799C125.128 11.5359 125.249 11.0786 125.249 10.8079C125.249 10.5839 125.165 10.4719 124.997 10.4719C124.698 10.4719 124.171 10.9619 123.415 11.9419C123.023 12.4552 122.785 12.7119 122.701 12.7119C122.58 12.7119 122.472 12.6606 122.379 12.5579C122.295 12.4459 122.253 12.3386 122.253 12.2359C122.253 12.1052 122.561 11.6852 123.177 10.9759C123.793 10.2572 124.386 9.69725 124.955 9.29592C125.534 8.88525 126.033 8.67992 126.453 8.67992C127.405 8.67992 127.881 9.09992 127.881 9.93992C127.881 10.4532 127.741 11.1159 127.461 11.9279L126.621 14.3079C127.694 12.5252 128.749 11.1439 129.785 10.1639C130.83 9.17458 131.782 8.67992 132.641 8.67992C133.145 8.67992 133.57 8.85258 133.915 9.19792C134.26 9.54325 134.433 9.98658 134.433 10.5279Z" fill="white"/>
<path d="M147.452 11.5359L145.632 11.4799C145.669 11.8159 145.688 12.0772 145.688 12.2639C145.688 13.7946 145.072 15.2086 143.84 16.5059C142.608 17.8032 141.208 18.4519 139.64 18.4519C139.323 18.4519 139.071 18.5079 138.884 18.6199C138.697 18.7226 138.604 18.8532 138.604 19.0119C138.604 19.1706 138.739 19.3293 139.01 19.4879C139.281 19.6466 139.897 19.8892 140.858 20.2159C142.753 20.8599 144.031 21.4526 144.694 21.9939C145.357 22.5446 145.688 23.1653 145.688 23.8559C145.688 24.6679 145.38 25.4706 144.764 26.2639C144.148 27.0572 143.336 27.6826 142.328 28.1399C141.329 28.6066 140.256 28.8399 139.108 28.8399C137.344 28.8399 135.916 28.5179 134.824 27.8739C133.723 27.2392 133.172 26.4226 133.172 25.4239C133.172 24.7612 133.578 24.0659 134.39 23.3379C135.202 22.6192 136.243 21.9986 137.512 21.4759C136.485 20.9439 135.972 20.4586 135.972 20.0199C135.972 19.7306 136.121 19.4459 136.42 19.1659C136.719 18.8766 137.297 18.5172 138.156 18.0879C137.073 17.4626 136.532 16.4079 136.532 14.9239C136.532 13.3559 137.129 11.9232 138.324 10.6259C139.528 9.32858 140.909 8.67992 142.468 8.67992C143.663 8.67992 144.549 9.15591 145.128 10.1079L147.886 10.0239C148.007 10.0239 148.068 10.1406 148.068 10.3739C148.068 10.6539 147.998 10.9199 147.858 11.1719C147.727 11.4146 147.592 11.5359 147.452 11.5359ZM143.28 11.1439C143.28 10.1172 142.907 9.60392 142.16 9.60392C141.665 9.60392 141.147 9.91658 140.606 10.5419C140.074 11.1672 139.654 11.9652 139.346 12.9359C139.038 13.8972 138.884 14.9239 138.884 16.0159C138.884 16.4732 138.982 16.8466 139.178 17.1359C139.383 17.4159 139.659 17.5559 140.004 17.5559C140.881 17.5559 141.647 16.9259 142.3 15.6659C142.953 14.3966 143.28 12.8892 143.28 11.1439ZM143.532 25.2279C143.532 24.6026 143.168 24.0379 142.44 23.5339C141.721 23.0392 140.405 22.5119 138.492 21.9519C137.68 22.1946 136.91 22.6519 136.182 23.3239C135.463 24.0052 135.104 24.6679 135.104 25.3119C135.104 27.0666 136.448 27.9439 139.136 27.9439C140.312 27.9439 141.339 27.6826 142.216 27.1599C143.093 26.6466 143.532 26.0026 143.532 25.2279Z" fill="white"/>
<path d="M166.901 1.86191C166.901 2.25391 166.757 2.59458 166.467 2.88392C166.187 3.17325 165.842 3.31792 165.431 3.31792C165.114 3.31792 164.722 3.15458 164.255 2.82791C163.779 2.50125 163.378 2.33791 163.051 2.33791C162.435 2.33791 161.931 2.47325 161.539 2.74392C161.147 3.01458 160.816 3.46258 160.545 4.08791C160.275 4.71325 159.92 6.02925 159.481 8.03592C159.332 8.73592 159.215 9.27725 159.131 9.65991H162.239C162.342 9.65991 162.407 9.68792 162.435 9.74392C162.473 9.79992 162.491 9.92125 162.491 10.1079C162.491 10.2946 162.44 10.4672 162.337 10.6259C162.244 10.7846 162.146 10.8639 162.043 10.8639L158.879 10.8079L156.555 20.4399C156.154 22.1293 155.613 23.5946 154.931 24.8359C154.259 26.0866 153.485 27.0666 152.607 27.7759C151.721 28.4853 150.871 28.8399 150.059 28.8399C149.397 28.8399 148.832 28.6719 148.365 28.3359C147.889 28.0092 147.651 27.6266 147.651 27.1879C147.651 26.3852 148.053 25.9839 148.855 25.9839C149.191 25.9839 149.597 26.1939 150.073 26.6139C150.549 27.0339 150.955 27.2439 151.291 27.2439C151.879 27.2439 152.337 27.0152 152.663 26.5579C152.981 26.1006 153.298 25.1159 153.615 23.6039L156.275 11.1439V11.0459C156.275 10.8872 156.182 10.8079 155.995 10.8079H153.755C153.587 10.8079 153.503 10.6866 153.503 10.4439C153.503 10.2946 153.606 10.1826 153.811 10.1079C155.734 9.88392 156.714 9.59458 156.751 9.23992C157.041 7.82125 157.615 6.40258 158.473 4.98392C159.341 3.55592 160.321 2.44525 161.413 1.65191C162.505 0.858581 163.621 0.461914 164.759 0.461914C166.187 0.461914 166.901 0.928581 166.901 1.86191Z" fill="white"/>
<path d="M170.805 10.7799C170.805 12.0586 170.171 13.2112 168.901 14.2379C167.632 15.2552 166.157 15.7639 164.477 15.7639C164.421 16.3239 164.393 16.8279 164.393 17.2759C164.393 18.0972 164.505 18.6853 164.729 19.0399C164.963 19.3946 165.345 19.5719 165.877 19.5719C167.072 19.5719 168.131 18.8859 169.055 17.5139L169.139 17.4719C169.214 17.4719 169.293 17.5232 169.377 17.6259C169.461 17.7192 169.503 17.8079 169.503 17.8919C169.503 18.0879 169.219 18.5546 168.649 19.2919C168.08 20.0292 167.478 20.5986 166.843 20.9999C166.218 21.4106 165.607 21.6159 165.009 21.6159C164.095 21.6159 163.343 21.2659 162.755 20.5659C162.167 19.8566 161.873 19.0212 161.873 18.0599C161.873 16.7159 162.223 15.3112 162.923 13.8459C163.633 12.3806 164.533 11.1532 165.625 10.1639C166.727 9.17458 167.744 8.67992 168.677 8.67992C169.349 8.67992 169.872 8.87125 170.245 9.25392C170.619 9.62725 170.805 10.1359 170.805 10.7799ZM168.817 11.2559C168.817 10.4719 168.472 10.0799 167.781 10.0799C167.109 10.0799 166.479 10.5372 165.891 11.4519C165.303 12.3666 164.888 13.5052 164.645 14.8679C165.429 14.8679 166.125 14.7046 166.731 14.3779C167.347 14.0419 167.847 13.5659 168.229 12.9499C168.621 12.3246 168.817 11.7599 168.817 11.2559Z" fill="white"/>
<path d="M184.33 8.93192L180.354 18.1159C180.074 18.7506 179.934 19.2079 179.934 19.4879C179.934 19.7119 180.027 19.8239 180.214 19.8239C180.485 19.8239 181.091 19.2592 182.034 18.1299C182.463 17.6166 182.706 17.3599 182.762 17.3599C182.874 17.3599 182.977 17.4159 183.07 17.5279C183.163 17.6306 183.21 17.7332 183.21 17.8359C183.21 17.9666 182.869 18.4146 182.188 19.1799C181.507 19.9452 180.858 20.5426 180.242 20.9719C179.635 21.4012 179.122 21.6159 178.702 21.6159C177.769 21.6159 177.302 21.1772 177.302 20.2999C177.302 19.4786 177.694 18.3399 178.478 16.8839C177.796 18.1532 176.887 19.2592 175.748 20.2019C174.618 21.1446 173.634 21.6159 172.794 21.6159C172.318 21.6159 171.94 21.4339 171.66 21.0699C171.389 20.7059 171.254 20.2066 171.254 19.5719C171.254 18.3492 171.767 16.9492 172.794 15.3719C173.821 13.7852 175.081 12.3992 176.574 11.2139C178.067 10.0286 179.318 9.43592 180.326 9.43592C180.821 9.43592 181.222 9.53858 181.53 9.74392L181.866 8.93192C182.006 8.61458 182.491 8.45592 183.322 8.45592C184.003 8.45592 184.344 8.58658 184.344 8.84792L184.33 8.93192ZM180.858 11.1439C180.858 10.5839 180.653 10.3039 180.242 10.3039C179.449 10.3039 178.539 10.7472 177.512 11.6339C176.485 12.5112 175.584 13.5939 174.81 14.8819C174.044 16.1699 173.662 17.2386 173.662 18.0879C173.662 18.5919 173.741 18.9512 173.9 19.1659C174.059 19.3806 174.324 19.4879 174.698 19.4879C175.174 19.4879 175.907 18.9466 176.896 17.8639C177.895 16.7719 178.805 15.5352 179.626 14.1539C180.447 12.7726 180.858 11.7692 180.858 11.1439Z" fill="white"/>
<path d="M192.782 10.2199C192.782 11.0412 192.465 11.4519 191.83 11.4519C191.55 11.4519 191.121 11.1999 190.542 10.6959C189.982 10.2106 189.581 9.96792 189.338 9.96792C189.105 9.96792 188.918 10.0472 188.778 10.2059C188.647 10.3646 188.582 10.5652 188.582 10.8079C188.582 11.3212 188.909 12.3059 189.562 13.7619C190.271 15.3486 190.626 16.4452 190.626 17.0519C190.626 18.2559 190.211 19.3199 189.38 20.2439C188.559 21.1586 187.509 21.6159 186.23 21.6159C185.577 21.6159 184.979 21.4386 184.438 21.0839C183.897 20.7386 183.626 20.3746 183.626 19.9919C183.626 19.6279 183.733 19.3432 183.948 19.1379C184.153 18.9232 184.438 18.8159 184.802 18.8159C185.101 18.8159 185.432 19.0539 185.796 19.5299C186.104 19.9219 186.37 20.1832 186.594 20.3139C186.827 20.4352 187.089 20.4959 187.378 20.4959C187.751 20.4959 188.045 20.3326 188.26 20.0059C188.475 19.6699 188.582 19.2079 188.582 18.6199C188.582 18.1999 188.321 17.4532 187.798 16.3799C187.033 14.8212 186.65 13.5892 186.65 12.6839C186.65 11.7132 187.037 10.8032 187.812 9.95392C188.596 9.10458 189.497 8.67992 190.514 8.67992C191.195 8.67992 191.741 8.82458 192.152 9.11392C192.572 9.40325 192.782 9.77192 192.782 10.2199Z" fill="white"/>
<path d="M202.201 9.77192C202.201 9.95858 202.136 10.1359 202.005 10.3039C201.884 10.4719 201.763 10.5559 201.641 10.5559L198.813 10.4719L196.181 18.1159C195.995 18.7132 195.901 19.1332 195.901 19.3759C195.901 19.6746 196.004 19.8239 196.209 19.8239C196.648 19.8239 197.525 19.2312 198.841 18.0459C199.336 17.5886 199.616 17.3599 199.681 17.3599C199.812 17.3599 199.929 17.4159 200.031 17.5279C200.134 17.6306 200.185 17.7332 200.185 17.8359C200.185 17.9852 199.775 18.4332 198.953 19.1799C198.132 19.9172 197.353 20.5099 196.615 20.9579C195.887 21.3966 195.304 21.6159 194.865 21.6159C193.839 21.6159 193.325 21.0932 193.325 20.0479C193.325 19.5532 193.437 18.9839 193.661 18.3399L196.349 10.4999L194.193 10.5559C194.007 10.5559 193.913 10.4066 193.913 10.1079C193.913 9.93058 193.974 9.75792 194.095 9.58992C194.226 9.41258 194.352 9.32392 194.473 9.32392H196.741L197.777 6.31392C197.824 6.17392 197.992 6.06192 198.281 5.97791C198.58 5.88458 198.879 5.83792 199.177 5.83792C199.439 5.83792 199.681 5.87992 199.905 5.96392C200.139 6.03858 200.255 6.13191 200.255 6.24392L200.241 6.31392L199.205 9.32392H201.893C202.099 9.32392 202.201 9.47325 202.201 9.77192Z" fill="white"/>
</svg>
